<svg width="18" height="12" viewBox="0 0 18 12" fill="none" xmlns="http://www.w3.org/2000/svg">
<path d="M9.00066 8.39994C10.3261 8.39994 11.4006 7.32543 11.4006 5.99996C11.4006 4.67448 10.3261 3.59998 9.00066 3.59998C7.67519 3.59998 6.60068 4.67448 6.60068 5.99996C6.60068 7.32543 7.67519 8.39994 9.00066 8.39994Z" fill="#818181"/>
<path d="M17.8071 5.34746C16.8149 3.81297 15.5275 2.50948 14.0845 1.57761C12.4882 0.545621 10.7257 0 8.98794 0C7.39345 0 5.82558 0.455622 4.32784 1.35412C2.80048 2.27023 1.41674 3.6086 0.214871 5.33171C0.0791917 5.52645 0.00446747 5.75713 0.000194111 5.99443C-0.00407925 6.23174 0.0622912 6.46496 0.190872 6.66445C1.18124 8.21432 2.45586 9.51968 3.87635 10.4388C5.47571 11.4749 7.19695 11.9999 8.98794 11.9999C10.7395 11.9999 12.5058 11.4588 14.0954 10.4354C15.5376 9.50656 16.8224 8.19819 17.8109 6.65095C17.935 6.45609 18.0007 6.22971 18 5.99866C17.9993 5.76761 17.9324 5.5416 17.8071 5.34746ZM9.00068 9.59993C8.28868 9.59993 7.59266 9.3888 7.00065 8.99323C6.40863 8.59766 5.94722 8.03542 5.67474 7.37761C5.40227 6.7198 5.33098 5.99596 5.46988 5.29764C5.60879 4.59931 5.95165 3.95786 6.45512 3.45439C6.95858 2.95093 7.60004 2.60806 8.29836 2.46916C8.99669 2.33025 9.72053 2.40154 10.3783 2.67402C11.0361 2.94649 11.5984 3.40791 11.994 3.99992C12.3895 4.59193 12.6007 5.28795 12.6007 5.99996C12.5996 6.9544 12.2199 7.86943 11.545 8.54432C10.8702 9.21921 9.95512 9.59884 9.00068 9.59993Z" fill="#818181"/>
</svg>
