<svg width="271" height="271" viewBox="0 0 271 271" fill="none" xmlns="http://www.w3.org/2000/svg">
<rect width="271" height="271" fill="url(#paint0_radial_112_96)"/>
<circle cx="135.5" cy="135.5" r="56.5" fill="#1D2833"/>
<path d="M163 136.094V161.937C163 162.523 162.539 163 161.972 163H157.875C157.309 163 156.847 162.523 156.847 161.937V141.361H113.145V161.937C113.145 162.523 112.684 163 112.117 163H108.02C107.461 163 107 162.523 107 161.937V136.094C107 135.485 107.469 135 108.043 135H161.942C162.169 135 162.373 135.07 162.539 135.18C162.645 135.266 162.735 135.359 162.819 135.469C162.849 135.524 162.887 135.594 162.909 135.664C162.94 135.735 162.955 135.797 162.977 135.867C162.985 135.946 162.992 136.016 162.992 136.086L163 136.094Z" fill="#E8D7BD"/>
<path d="M147.727 107.807C147.713 107.741 147.691 107.682 147.662 107.616C147.648 107.55 147.612 107.491 147.576 107.433C147.461 107.279 147.309 107.154 147.129 107.081C147.064 107.051 147.007 107.037 146.942 107.015C146.891 107.007 146.826 107 146.762 107H125.82C125.748 107 125.676 107.007 125.618 107.015C125.553 107.029 125.496 107.051 125.431 107.081C125.251 107.154 125.099 107.279 124.984 107.433C124.955 107.484 124.919 107.55 124.897 107.616C124.869 107.682 124.854 107.741 124.833 107.807C124.825 107.88 124.818 107.946 124.818 108.012V128.919C124.818 128.992 124.825 129.058 124.833 129.117C124.919 129.498 125.215 129.806 125.596 129.894C125.661 129.902 125.719 129.909 125.791 129.909H146.754C146.826 129.909 146.891 129.902 146.949 129.894C147.324 129.806 147.626 129.498 147.713 129.117C147.72 129.051 147.727 128.992 147.727 128.919V107.99C147.727 107.924 147.72 107.873 147.713 107.807H147.727ZM130.677 112.964H141.883V123.953H130.677V112.964Z" fill="#E8D7BD"/>
<defs>
<radialGradient id="paint0_radial_112_96" cx="0" cy="0" r="1" gradientUnits="userSpaceOnUse" gradientTransform="translate(135.5 135.5) rotate(90) scale(135.5)">
<stop stop-color="#085877"/>
<stop offset="0.55" stop-color="#4B7E8C"/>
<stop offset="1" stop-color="#E8D7BD"/>
</radialGradient>
</defs>
</svg>
