<svg width="10" height="18" viewBox="0 0 10 18" fill="none" xmlns="http://www.w3.org/2000/svg">
<path d="M9.89959 8.75612L1.58636 0.102549C1.45248 -0.034183 1.23776 -0.034183 1.10388 0.102549L0.143985 1.10175C0.0682033 1.18063 0.0353647 1.28055 0.0429428 1.38047C0.0404168 1.38573 0.0404168 1.39362 0.0404168 1.39888V7.16266C0.0404168 7.27836 0.0934638 7.38091 0.174297 7.44401C0.197032 7.47557 0.224818 7.51238 0.255131 7.54393L1.63941 8.98488L0.141459 10.5389C0.113672 10.5678 0.0909378 10.5967 0.0757815 10.6309C0.0277865 10.6914 0 10.7677 0 10.8518V16.6156C0 16.6708 0.0126302 16.7208 0.0353647 16.7655C0.0404168 16.7812 0.050521 16.797 0.0606252 16.8154C0.0732554 16.8444 0.0909378 16.8706 0.113672 16.8943L1.07357 17.8935C1.20998 18.0355 1.4348 18.0355 1.57373 17.8935L8.83865 10.3285C8.87654 10.3128 8.90685 10.2891 8.93969 10.2575L9.89959 9.25834C10.0335 9.11898 10.0335 8.89548 9.89959 8.75612ZM2.05115 14.3753V11.5775L3.32428 10.2549C3.32428 10.2549 3.33439 10.2497 3.33944 10.2418L4.29934 9.24257C4.43069 9.10321 4.3827 8.82711 4.19072 8.62464L2.09157 6.43956V3.64707L7.22703 8.99277L2.05115 14.3753Z" fill="#E8D7BD"/>
</svg>
